ply
format ascii 1.0
element vertex 178
property float x
property float y
property float z
property uchar red
property uchar green
property uchar blue
end_header
0.0 0.0 0.0 255 255 255
1.0 0.0 0.0 255 255 255
2.0 0.0 0.0 255 255 255
3.0 0.0 0.0 255 255 255
4.0 0.0 0.0 255 255 255
5.0 0.0 0.0 255 255 255
6.0 0.0 0.0 255 255 255
7.0 0.0 0.0 255 255 255
0.0 1.0 0.0 255 255 255
1.0 1.0 0.0 255 255 255
2.0 1.0 0.0 255 255 255
3.0 1.0 0.0 255 255 255
4.0 1.0 0.0 255 255 255
5.0 1.0 0.0 255 255 255
6.0 1.0 0.0 255 255 255
7.0 1.0 0.0 255 255 255
0.0 2.0 0.0 255 255 255
1.0 2.0 0.0 255 255 255
2.0 2.0 0.0 255 255 255
3.0 2.0 0.0 255 255 255
4.0 2.0 0.0 255 255 255
5.0 2.0 0.0 255 255 255
6.0 2.0 0.0 255 255 255
7.0 2.0 0.0 255 255 255
0.0 3.0 0.0 255 255 255
1.0 3.0 0.0 255 255 255
2.0 3.0 0.0 255 255 255
3.0 3.0 0.0 255 255 255
4.0 3.0 0.0 255 255 255
5.0 3.0 0.0 255 255 255
6.0 3.0 0.0 255 255 255
7.0 3.0 0.0 255 255 255
0.0 4.0 0.0 255 255 255
1.0 4.0 0.0 255 255 255
2.0 4.0 0.0 255 255 255
3.0 4.0 0.0 255 255 255
4.0 4.0 0.0 255 255 255
5.0 4.0 0.0 255 255 255
6.0 4.0 0.0 255 255 255
7.0 4.0 0.0 255 255 255
0.0 5.0 0.0 255 255 255
1.0 5.0 0.0 255 255 255
2.0 5.0 0.0 255 255 255
3.0 5.0 0.0 255 255 255
4.0 5.0 0.0 255 255 255
5.0 5.0 0.0 255 255 255
6.0 5.0 0.0 255 255 255
7.0 5.0 0.0 255 255 255
0.0 6.0 0.0 255 255 255
1.0 6.0 0.0 255 255 255
2.0 6.0 0.0 255 255 255
3.0 6.0 0.0 255 255 255
4.0 6.0 0.0 255 255 255
5.0 6.0 0.0 255 255 255
6.0 6.0 0.0 255 255 255
7.0 6.0 0.0 255 255 255
0.0 7.0 0.0 255 255 255
1.0 7.0 0.0 255 255 255
2.0 7.0 0.0 255 255 255
3.0 7.0 0.0 255 255 255
4.0 7.0 0.0 255 255 255
5.0 7.0 0.0 255 255 255
6.0 7.0 0.0 255 255 255
7.0 7.0 0.0 255 255 255
0.0 8.0 0.0 255 255 255
1.0 8.0 0.0 255 255 255
2.0 8.0 0.0 255 255 255
3.0 8.0 0.0 255 255 255
4.0 8.0 0.0 255 255 255
5.0 8.0 0.0 255 255 255
6.0 8.0 0.0 255 255 255
7.0 8.0 0.0 255 255 255
0.0 9.0 0.0 255 255 255
1.0 9.0 0.0 255 255 255
2.0 9.0 0.0 255 255 255
3.0 9.0 0.0 255 255 255
4.0 9.0 0.0 255 255 255
5.0 9.0 0.0 255 255 255
6.0 9.0 0.0 255 255 255
7.0 9.0 0.0 255 255 255
0.0 10.0 0.0 255 255 255
1.0 10.0 0.0 255 255 255
2.0 10.0 0.0 255 255 255
3.0 10.0 0.0 255 255 255
4.0 10.0 0.0 255 255 255
5.0 10.0 0.0 255 255 255
6.0 10.0 0.0 255 255 255
7.0 10.0 0.0 255 255 255
0.0 0.0 0.0 255 255 255
1.0 0.0 0.0 255 255 255
2.0 0.0 0.0 255 255 255
3.0 0.0 0.0 255 255 255
4.0 0.0 0.0 255 255 255
5.0 0.0 0.0 255 255 255
6.0 0.0 0.0 255 255 255
7.0 0.0 0.0 255 255 255
0.0 1.0 0.0 255 255 255
1.0 1.0 0.0 255 255 255
2.0 1.0 0.0 255 255 255
3.0 1.0 0.0 255 255 255
4.0 1.0 0.0 255 255 255
5.0 1.0 0.0 255 255 255
6.0 1.0 0.0 255 255 255
7.0 1.0 0.0 255 255 255
0.0 2.0 0.0 255 255 255
1.0 2.0 0.0 255 255 255
2.0 2.0 0.0 255 255 255
3.0 2.0 0.0 255 255 255
4.0 2.0 0.0 255 255 255
5.0 2.0 0.0 255 255 255
6.0 2.0 0.0 255 255 255
7.0 2.0 0.0 255 255 255
0.0 3.0 0.0 255 255 255
1.0 3.0 0.0 255 255 255
2.0 3.0 0.0 255 255 255
3.0 3.0 0.0 255 255 255
4.0 3.0 0.0 255 255 255
5.0 3.0 0.0 255 255 255
6.0 3.0 0.0 255 255 255
7.0 3.0 0.0 255 255 255
0.0 4.0 0.0 255 255 255
1.0 4.0 0.0 255 255 255
2.0 4.0 0.0 255 255 255
3.0 4.0 0.0 255 255 255
4.0 4.0 0.0 255 255 255
5.0 4.0 0.0 255 255 255
6.0 4.0 0.0 255 255 255
7.0 4.0 0.0 255 255 255
0.0 5.0 0.0 255 255 255
1.0 5.0 0.0 255 255 255
2.0 5.0 0.0 255 255 255
3.0 5.0 0.0 255 255 255
4.0 5.0 0.0 255 255 255
5.0 5.0 0.0 255 255 255
6.0 5.0 0.0 255 255 255
7.0 5.0 0.0 255 255 255
0.0 6.0 0.0 255 255 255
1.0 6.0 0.0 255 255 255
2.0 6.0 0.0 255 255 255
3.0 6.0 0.0 255 255 255
4.0 6.0 0.0 255 255 255
5.0 6.0 0.0 255 255 255
6.0 6.0 0.0 255 255 255
7.0 6.0 0.0 255 255 255
0.0 7.0 0.0 255 255 255
1.0 7.0 0.0 255 255 255
2.0 7.0 0.0 255 255 255
3.0 7.0 0.0 255 255 255
4.0 7.0 0.0 255 255 255
5.0 7.0 0.0 255 255 255
6.0 7.0 0.0 255 255 255
7.0 7.0 0.0 255 255 255
0.0 8.0 0.0 255 255 255
1.0 8.0 0.0 255 255 255
2.0 8.0 0.0 255 255 255
3.0 8.0 0.0 255 255 255
4.0 8.0 0.0 255 255 255
5.0 8.0 0.0 255 255 255
6.0 8.0 0.0 255 255 255
7.0 8.0 0.0 255 255 255
0.0 9.0 0.0 255 255 255
1.0 9.0 0.0 255 255 255
2.0 9.0 0.0 255 255 255
3.0 9.0 0.0 255 255 255
4.0 9.0 0.0 255 255 255
5.0 9.0 0.0 255 255 255
6.0 9.0 0.0 255 255 255
7.0 9.0 0.0 255 255 255
0.0 10.0 0.0 255 255 255
1.0 10.0 0.0 255 255 255
2.0 10.0 0.0 255 255 255
3.0 10.0 0.0 255 255 255
4.0 10.0 0.0 255 255 255
5.0 10.0 0.0 255 255 255
6.0 10.0 0.0 255 255 255
7.0 10.0 0.0 255 255 255
41.429641051666096 -4.892547430989904 -5.933929606502527 255 0 0
84.19520337267154 0.384879361997983 4.996090070614827 255 0 0
